# xmcd
#
# Track frame offsets:
#	150
#	16069
#	33178
#	50451
#	69681
#	86428
#	101475
#	119780
#	138024
#	155879
#	174464
#
# Disc length: 2553
#
# Revision: 1
# Processed by: cddbd v1.5.1PL0 Copyright (c) Steve Scherf et al.
# Submitted via: VisiTrax 2.9.5.180 - For more info visit www.synapsa.com
# Normalized: r0:DSETVAR1
#
DISCID=8c09f70b
DTITLE=Various Artist - CDX 257 January 2001
DYEAR=2001
DGENRE=
TTITLE0=Martina McBride - It's my time
TTITLE1=Dolly Parton - A tender lie
TTITLE2=Neal McCoy - Beatin' it in
TTITLE3=Rickt Lynn Gregg - Careful what you wish for
TTITLE4=Brad Paisley/Chely Wright - Hard to be a husband
TTITLE5=Sherrie Austin - Jolene
TTITLE6=Leslie Satcher/Emmylou Harris/Alison Krauss - Love letters from old Mexico
TTITLE7=Terri Clark - No fear
TTITLE8=Phil Vassar - Rose Bouquet
TTITLE9=Dan Roberts - Cowhand.com
TTITLE10=Dianna Littlepage - Make him mine
EXTD=
EXTT0=
EXTT1=
EXTT2=
EXTT3=
EXTT4=
EXTT5=
EXTT6=
EXTT7=
EXTT8=
EXTT9=
EXTT10=
PLAYORDER=
